<?xml version="1.0" standalone="no"?>
<!DOCTYPE svg PUBLIC "-//W3C//DTD SVG 20010904//EN"
 "http://www.w3.org/TR/2001/REC-SVG-20010904/DTD/svg10.dtd">
<svg version="1.0" xmlns="http://www.w3.org/2000/svg"
 width="136.000000pt" height="136.000000pt" viewBox="0 0 136.000000 136.000000"
 preserveAspectRatio="xMidYMid meet">
<metadata>
Created by potrace 1.11, written by Peter Selinger 2001-2013
</metadata>
<g transform="translate(0.000000,136.000000) scale(0.100000,-0.100000)"
fill="#000000" stroke="none">
<path d="M542 1230 c-41 -11 -99 -34 -130 -52 -56 -31 -192 -158 -192 -178 0
-24 29 -6 89 54 208 211 523 222 744 25 30 -27 74 -79 97 -115 28 -45 45 -63
52 -56 16 16 -40 108 -108 177 -143 143 -351 197 -552 145z"/>
<path d="M584 1160 c-49 -10 -131 -50 -192 -93 l-43 -31 86 -23 c96 -25 131
-42 194 -90 l44 -33 35 40 c52 62 124 86 156 54 22 -22 20 -51 -6 -78 -13 -13
-31 -37 -40 -54 -15 -29 -15 -31 0 -34 9 -2 26 2 37 8 11 7 38 15 60 18 22 3
65 11 95 17 30 6 69 12 85 13 17 0 33 5 37 10 9 14 -64 117 -115 163 -117 102
-276 144 -433 113z m106 -48 c0 -26 -3 -28 -42 -31 -23 -1 -48 -7 -54 -12 -15
-13 -28 6 -20 28 5 13 9 13 23 2 9 -8 14 -9 10 -3 -4 7 3 14 20 19 16 4 29 2
33 -6 5 -8 10 -5 15 10 9 29 15 26 15 -7z m51 -9 c1 -15 2 -15 6 -2 6 24 53
12 53 -13 0 -16 -5 -19 -22 -14 -13 3 -35 6 -50 6 -21 0 -28 5 -28 20 0 26 39
28 41 3z m128 -2 c9 -6 12 -18 7 -37 -6 -27 -6 -28 9 -10 11 15 18 17 26 9 19
-19 3 -41 -27 -37 -30 3 -54 27 -54 54 0 29 15 36 39 21z m-327 -10 c15 8 17
6 15 -10 -4 -27 -17 -39 -17 -16 0 14 -3 15 -15 5 -8 -7 -13 -16 -10 -20 3 -5
1 -11 -3 -14 -5 -3 -14 6 -21 21 -10 21 -9 28 1 34 7 5 17 4 22 -1 5 -5 16 -5
28 1z m410 -72 c-3 -11 -1 -12 9 -1 23 22 32 13 14 -15 l-18 -28 22 19 c11 11
23 17 26 14 3 -3 -4 -13 -15 -23 -20 -18 -21 -18 -47 7 -14 15 -22 31 -18 37
9 16 31 7 27 -10z m68 -40 c0 -6 7 -18 16 -27 15 -15 15 -16 -2 -23 -11 -4
-26 -8 -34 -8 -12 0 -11 2 3 10 24 14 22 32 -4 24 -18 -6 -19 -5 -7 14 14 23
28 28 28 10z"/>
<path d="M851 1074 c0 -11 3 -14 6 -6 3 7 2 16 -1 19 -3 4 -6 -2 -5 -13z"/>
<path d="M314 959 c-18 -20 -18 -21 1 -35 27 -20 41 -17 22 4 -13 14 -14 21
-5 30 6 6 9 14 6 17 -2 3 -13 -4 -24 -16z"/>
<path d="M355 960 c-3 -5 1 -10 9 -10 8 0 18 5 21 10 3 6 -1 10 -9 10 -8 0
-18 -4 -21 -10z"/>
<path d="M416 961 c-12 -5 -15 -10 -9 -14 6 -4 16 0 23 8 14 17 13 17 -14 6z"/>
<path d="M190 936 c-63 -18 -105 -41 -129 -72 -25 -32 -26 -47 -4 -84 16 -27
15 -29 -10 -60 -35 -41 -38 -113 -6 -130 26 -14 73 3 94 34 18 25 20 87 3 104
-18 18 -2 29 78 57 100 36 113 33 68 -12 -22 -23 -60 -86 -94 -158 -32 -66
-69 -131 -84 -144 -25 -23 -27 -24 -39 -7 -18 25 -51 17 -55 -13 -3 -22 -1
-23 35 -18 67 9 259 54 281 66 57 31 81 107 41 134 l-21 15 21 7 c11 3 34 19
50 35 24 21 31 37 31 64 0 32 -5 38 -35 53 -27 13 -32 19 -24 30 14 17 5 17
-29 -1 -15 -7 -54 -16 -87 -19 -33 -4 -86 -15 -118 -26 l-57 -20 -17 25 c-15
24 -15 27 4 52 25 34 98 72 152 79 23 3 41 10 41 14 0 12 -36 10 -90 -5z m208
-161 c4 -40 -33 -95 -78 -117 -28 -15 -31 -18 -13 -18 30 0 38 -32 18 -74 -25
-51 -54 -73 -120 -88 l-61 -14 41 40 c37 38 68 92 109 188 45 109 97 150 104
83z m-268 -101 c0 -32 -37 -74 -66 -74 -14 0 -24 6 -24 14 0 25 20 70 42 93
20 21 22 21 34 5 7 -9 14 -27 14 -38z"/>
<path d="M455 940 c3 -5 12 -7 20 -3 21 7 19 13 -6 13 -11 0 -18 -4 -14 -10z"/>
<path d="M793 940 c-35 -14 -70 -68 -142 -219 -38 -79 -76 -148 -85 -153 -25
-14 -20 14 15 83 17 34 28 63 26 65 -7 8 -57 -7 -57 -17 0 -5 -12 -6 -27 -3
-61 11 -127 -63 -121 -134 3 -31 7 -37 29 -40 15 -2 32 5 43 17 14 15 23 18
37 11 12 -7 35 -6 70 2 48 11 53 15 74 60 l23 49 20 -36 c24 -39 39 -42 83
-19 17 8 36 13 42 11 7 -2 26 0 42 6 28 8 52 12 98 16 12 1 30 27 56 84 35 76
64 109 80 91 3 -4 0 -9 -6 -11 -18 -6 -16 -43 2 -43 8 0 19 9 25 21 21 38 -31
68 -59 35 -9 -10 -23 -13 -48 -9 -31 5 -35 4 -30 -11 4 -10 -5 -40 -22 -74
-22 -43 -38 -62 -66 -75 -75 -36 -65 24 11 63 38 20 50 31 52 53 3 24 0 27
-28 27 -67 0 -115 -47 -128 -123 -10 -54 -37 -62 -56 -17 -12 31 -12 33 27 71
50 51 42 63 -10 14 -35 -34 -73 -61 -73 -52 0 20 107 236 123 249 24 19 15 22
-20 8z m147 -166 c0 -14 -22 -45 -40 -54 -26 -14 -25 0 1 34 19 24 39 34 39
20z m-410 -99 c0 -29 -60 -135 -76 -135 -19 0 -14 18 27 94 30 55 49 71 49 41z"/>
<path d="M360 925 c7 -8 17 -15 22 -15 6 0 5 7 -2 15 -7 8 -17 15 -22 15 -6 0
-5 -7 2 -15z"/>
<path d="M410 915 c7 -9 15 -13 17 -11 7 7 -7 26 -19 26 -6 0 -6 -6 2 -15z"/>
<path d="M440 921 c0 -5 7 -14 15 -21 12 -10 15 -10 15 3 0 8 -7 17 -15 21 -8
3 -15 2 -15 -3z"/>
<path d="M480 926 c0 -10 28 -13 41 -5 10 6 7 9 -13 9 -16 0 -28 -2 -28 -4z"/>
<path d="M486 897 c3 -10 9 -15 12 -12 3 3 0 11 -7 18 -10 9 -11 8 -5 -6z"/>
<path d="M538 898 c9 -9 15 -9 24 0 9 9 7 12 -12 12 -19 0 -21 -3 -12 -12z"/>
<path d="M530 870 c6 -11 13 -20 16 -20 2 0 0 9 -6 20 -6 11 -13 20 -16 20 -2
0 0 -9 6 -20z"/>
<path d="M1305 883 c-12 -2 -32 -26 -50 -60 -16 -31 -39 -71 -51 -89 -13 -18
-19 -34 -14 -36 5 -2 -5 -32 -23 -68 -22 -44 -38 -66 -52 -67 -11 -2 -14 0 -7
3 20 9 14 44 -8 44 -11 0 -20 -5 -20 -11 0 -7 -10 -9 -26 -5 -14 4 -32 2 -39
-4 -10 -9 -20 -7 -37 4 -21 14 -38 12 -198 -23 -96 -21 -272 -58 -390 -82
-196 -39 -217 -46 -242 -72 -15 -16 -32 -26 -38 -22 -16 10 -60 -23 -60 -45 0
-27 34 -44 60 -30 15 8 25 7 41 -3 17 -12 29 -12 87 0 85 18 432 91 492 103
204 41 235 51 253 74 11 16 24 22 36 19 11 -3 28 4 40 16 13 13 34 21 55 21
56 0 84 33 158 186 70 147 73 155 61 153 -5 -1 -17 -4 -28 -6z m-335 -313 c11
-20 12 -20 40 -3 23 13 33 14 41 6 15 -15 -6 -44 -30 -42 -35 3 -51 -2 -51
-16 0 -9 -10 -20 -22 -25 -20 -8 -238 -55 -583 -126 -44 -9 -105 -23 -135 -30
-51 -13 -56 -13 -71 5 -15 18 -19 18 -44 5 -18 -9 -32 -11 -38 -5 -14 14 0 43
20 40 37 -3 52 2 58 20 6 19 22 24 190 61 22 5 119 25 215 45 96 20 222 46
280 59 58 13 108 24 112 25 4 1 12 -8 18 -19z"/>
<path d="M681 474 c0 -11 3 -14 6 -6 3 7 2 16 -1 19 -3 4 -6 -2 -5 -13z"/>
<path d="M490 446 c0 -2 7 -7 16 -10 8 -3 12 -2 9 4 -6 10 -25 14 -25 6z"/>
<path d="M416 433 c5 -5 12 -12 16 -18 4 -6 8 -2 8 8 0 9 -7 17 -17 17 -9 0
-12 -3 -7 -7z"/>
<path d="M242 395 c0 -16 2 -22 5 -12 2 9 2 23 0 30 -3 6 -5 -1 -5 -18z"/>
<path d="M560 870 c0 -10 59 -54 65 -48 3 2 -2 13 -10 25 -15 21 -55 38 -55
23z"/>
<path d="M1200 861 c-18 -5 -33 -22 -52 -61 -30 -62 -33 -81 -16 -98 17 -17
49 -15 42 3 -3 8 9 46 27 85 17 39 30 72 28 73 -2 2 -15 1 -29 -2z"/>
<path d="M1233 563 c-10 -15 -29 -55 -43 -88 -31 -79 -67 -131 -134 -192 -111
-102 -215 -143 -362 -143 -137 0 -240 37 -347 124 -73 59 -97 46 -29 -15 173
-156 437 -187 646 -76 73 38 181 142 220 212 29 53 80 194 73 202 -3 2 -13 -8
-24 -24z"/>
<path d="M1043 489 c-13 -4 -23 -5 -23 -2 0 4 -11 -3 -24 -16 -26 -25 -80 -39
-407 -106 -123 -26 -225 -48 -226 -49 -7 -6 91 -69 144 -93 85 -38 241 -44
332 -14 74 25 160 78 203 124 39 42 85 109 97 140 10 25 9 25 -32 25 -23 0
-52 -4 -64 -9z m-3 -69 c12 -7 12 -12 3 -21 -9 -9 -16 -9 -27 1 -26 21 -5 39
24 20z m-23 -35 c3 -9 3 -19 -1 -22 -7 -7 -36 16 -36 28 0 15 30 10 37 -6z
m-27 -49 c-13 -13 -45 17 -35 34 5 8 12 6 26 -6 13 -12 16 -21 9 -28z m-42 2
c7 -7 12 -16 12 -20 0 -15 -15 -8 -28 12 -13 22 -3 27 16 8z m-423 -24 c20
-13 23 -20 14 -35 -9 -18 -12 -18 -39 -4 -33 17 -33 17 -24 39 8 20 18 20 49
0z m388 -8 c5 -13 -10 -36 -24 -36 -10 0 -20 30 -13 41 8 14 31 11 37 -5z
m-323 -23 c0 -5 -27 -33 -33 -33 -3 0 -1 38 2 47 2 4 31 -9 31 -14z m274 0 c4
-9 2 -21 -4 -27 -12 -12 -15 -8 -24 22 -9 27 18 32 28 5z m-34 -28 c0 -20 -38
-14 -43 6 -4 15 -2 19 9 15 8 -3 14 0 14 7 0 15 20 -13 20 -28z m-210 1 c0
-19 -4 -23 -20 -19 -16 4 -18 9 -9 24 14 26 29 24 29 -5z m48 -4 c3 -17 -2
-22 -17 -22 -14 0 -21 6 -21 18 0 38 33 41 38 4z m112 -9 c0 -7 -6 -13 -14
-13 -17 0 -28 38 -12 43 12 4 26 -11 26 -30z m-86 12 c-4 -8 -1 -15 6 -15 6 0
8 -4 5 -10 -11 -18 -25 -10 -25 15 0 14 4 25 10 25 5 0 7 -7 4 -15z m44 -8 c5
-24 -15 -21 -21 4 -3 13 -1 19 6 16 7 -2 13 -11 15 -20z"/>
<path d="M500 295 c0 -8 2 -15 4 -15 2 0 6 7 10 15 3 8 1 15 -4 15 -6 0 -10
-7 -10 -15z"/>
</g>
</svg>
